ffmpeg started on 2025-06-21 at 12:27:59
Report written to "D:\Convert\FFMetrics\reports\psnr_report-6.txt"
Log level: 32
Command line:
ffmpeg -hide_banner -nostdin -i "G:\\\xc0\xed\xe8\xec\xe5\\[\xd2\xee\xef-4]\\\xc4\xe5\xf0\xe6\xe0\xf1\xfc \xc7\xe0 \xd0\xf3\xea\xe8\\Hand_Shakers_[02]_[AniLibria.TV]_[HDTV-Rip_720p]_HEVC.mkv" -i "G:\\\xc0\xed\xe8\xec\xe5\\[\xd2\xee\xef-4]\\\xc4\xe5\xf0\xe6\xe0\xf1\xfc \xc7\xe0 \xd0\xf3\xea\xe8\\Hand_Shakers_[02]_[AniLibria.TV]_[HDTV-Rip_720p].mkv" -lavfi "[0:v]settb=AVTB,setpts=PTS-STARTPTS,format=pix_fmts=yuv420p10,fps=30000/1001,scale=1280:720:flags=bicubic[main];[1:v]settb=AVTB,setpts=PTS-STARTPTS,format=pix_fmts=yuv420p,fps=30000/1001,scale=1280:720:flags=bicubic[ref];[main][ref]psnr=eof_action=endall:stats_file='D\\:/Convert/FFMetrics/logs/psnr_logfile-6.txt'" -f null -
Input #0, matroska,webm, from 'G:\Аниме\[Топ-4]\Держась За Руки\Hand_Shakers_[02]_[AniLibria.TV]_[HDTV-Rip_720p]_HEVC.mkv':
  Metadata:
    ENCODER         : Lavf61.7.100
  Duration: 00:23:59.94, start: -0.021000, bitrate: 1544 kb/s
  Stream #0:0(jpn): Video: hevc (Main 10), yuv420p10le(tv, bt709, progressive), 1280x720 [SAR 1:1 DAR 16:9], 29.97 fps, 29.97 tbr, 1k tbn (default)
      Metadata:
        ENCODER         : Lavc61.19.100 libx265
        BPS             : 1345132
        DURATION        : 00:23:59.805366664
        NUMBER_OF_FRAMES: 43151
        NUMBER_OF_BYTES : 242091144
        _STATISTICS_WRITING_APP: mkvpropedit v66.0.0 ('Josie') 64-bit
        _STATISTICS_WRITING_DATE_UTC: 2025-06-20 15:25:15
        _STATISTICS_TAGS: BPS DURATION NUMBER_OF_FRAMES NUMBER_OF_BYTES
  Stream #0:1(rus): Audio: aac (LC), 48000 Hz, stereo, fltp (default) (forced)
      Metadata:
        title           : Амикири и Анзен
        ENCODER         : Lavc61.19.100 aac
        BPS             : 195183
        DURATION        : 00:23:59.914000000
        NUMBER_OF_FRAMES: 67497
        NUMBER_OF_BYTES : 35130920
        _STATISTICS_WRITING_APP: mkvpropedit v66.0.0 ('Josie') 64-bit
        _STATISTICS_WRITING_DATE_UTC: 2025-06-20 15:25:15
        _STATISTICS_TAGS: BPS DURATION NUMBER_OF_FRAMES NUMBER_OF_BYTES
  Stream #0:2(rus): Subtitle: ass (ssa) (default) (forced)
      Metadata:
        title           : Надписи
        BPS             : 20
        DURATION        : 00:10:00.750000000
        NUMBER_OF_FRAMES: 13
        NUMBER_OF_BYTES : 1507
        _STATISTICS_WRITING_APP: mkvpropedit v66.0.0 ('Josie') 64-bit
        _STATISTICS_WRITING_DATE_UTC: 2025-06-20 15:25:15
        _STATISTICS_TAGS: BPS DURATION NUMBER_OF_FRAMES NUMBER_OF_BYTES
  Stream #0:3(rus): Subtitle: ass (ssa)
      Metadata:
        title           : Полные
        BPS             : 141
        DURATION        : 00:23:47.100000000
        NUMBER_OF_FRAMES: 374
        NUMBER_OF_BYTES : 25224
        _STATISTICS_WRITING_APP: mkvpropedit v66.0.0 ('Josie') 64-bit
        _STATISTICS_WRITING_DATE_UTC: 2025-06-20 15:25:15
        _STATISTICS_TAGS: BPS DURATION NUMBER_OF_FRAMES NUMBER_OF_BYTES
Input #1, matroska,webm, from 'G:\Аниме\[Топ-4]\Держась За Руки\Hand_Shakers_[02]_[AniLibria.TV]_[HDTV-Rip_720p].mkv':
  Metadata:
    encoder         : libebml v1.4.2 + libmatroska v1.6.4
    creation_time   : 2024-12-27T17:04:43.000000Z
  Duration: 00:23:59.91, start: 0.000000, bitrate: 3561 kb/s
  Stream #1:0(jpn): Video: h264 (High), yuv420p(tv, bt709, progressive), 1280x720 [SAR 1:1 DAR 16:9], 29.97 fps, 29.97 tbr, 1k tbn (default)
      Metadata:
        BPS             : 3367063
        DURATION        : 00:23:59.805000000
        NUMBER_OF_FRAMES: 43151
        NUMBER_OF_BYTES : 605989413
        _STATISTICS_WRITING_APP: mkvmerge v66.0.0 ('Josie') 64-bit
        _STATISTICS_WRITING_DATE_UTC: 2024-12-27 17:04:43
        _STATISTICS_TAGS: BPS DURATION NUMBER_OF_FRAMES NUMBER_OF_BYTES
  Stream #1:1(rus): Audio: aac (LC), 48000 Hz, stereo, fltp (default) (forced)
      Metadata:
        title           : Амикири и Анзен
        BPS             : 189375
        DURATION        : 00:23:59.914000000
        NUMBER_OF_FRAMES: 67496
        NUMBER_OF_BYTES : 34085480
        _STATISTICS_WRITING_APP: mkvmerge v66.0.0 ('Josie') 64-bit
        _STATISTICS_WRITING_DATE_UTC: 2024-12-27 17:04:43
        _STATISTICS_TAGS: BPS DURATION NUMBER_OF_FRAMES NUMBER_OF_BYTES
  Stream #1:2(rus): Subtitle: ass (ssa) (default) (forced)
      Metadata:
        title           : Надписи
        BPS             : 20
        DURATION        : 00:10:00.750000000
        NUMBER_OF_FRAMES: 13
        NUMBER_OF_BYTES : 1507
        _STATISTICS_WRITING_APP: mkvmerge v66.0.0 ('Josie') 64-bit
        _STATISTICS_WRITING_DATE_UTC: 2024-12-27 17:04:43
        _STATISTICS_TAGS: BPS DURATION NUMBER_OF_FRAMES NUMBER_OF_BYTES
  Stream #1:3(rus): Subtitle: ass (ssa)
      Metadata:
        title           : Полные
        BPS             : 141
        DURATION        : 00:23:47.100000000
        NUMBER_OF_FRAMES: 374
        NUMBER_OF_BYTES : 25224
        _STATISTICS_WRITING_APP: mkvmerge v66.0.0 ('Josie') 64-bit
        _STATISTICS_WRITING_DATE_UTC: 2024-12-27 17:04:43
        _STATISTICS_TAGS: BPS DURATION NUMBER_OF_FRAMES NUMBER_OF_BYTES
  Stream #1:4: Attachment: ttf
      Metadata:
        filename        : 8289.otf
        mimetype        : application/x-truetype-font
  Stream #1:5: Attachment: ttf
      Metadata:
        filename        : 10200.ttf
        mimetype        : application/x-truetype-font
  Stream #1:6: Attachment: ttf
      Metadata:
        filename        : 10322.ttf
        mimetype        : application/x-truetype-font
  Stream #1:7: Attachment: ttf
      Metadata:
        filename        : 9756.ttf
        mimetype        : application/x-truetype-font
  Stream #1:8: Attachment: ttf
      Metadata:
        filename        : 10351.ttf
        mimetype        : application/x-truetype-font
Stream mapping:
  Stream #0:0 (hevc) -> settb:default
  Stream #1:0 (h264) -> settb:default
  psnr:default -> Stream #0:0 (wrapped_avframe)
  Stream #0:1 -> #0:1 (aac (native) -> pcm_s16le (native))
Output #0, null, to 'pipe:':
  Metadata:
    encoder         : Lavf61.7.100
  Stream #0:0: Video: wrapped_avframe, yuv420p10le(tv, bt709, progressive), 1280x720 [SAR 1:1 DAR 16:9], q=2-31, 200 kb/s, 29.97 fps, 29.97 tbn
      Metadata:
        encoder         : Lavc61.19.100 wrapped_avframe
  Stream #0:1(rus): Audio: pcm_s16le, 48000 Hz, stereo, s16, 1536 kb/s (default) (forced)
      Metadata:
        title           : Амикири и Анзен
        _STATISTICS_TAGS: BPS DURATION NUMBER_OF_FRAMES NUMBER_OF_BYTES
        BPS             : 195183
        DURATION        : 00:23:59.914000000
        NUMBER_OF_FRAMES: 67497
        NUMBER_OF_BYTES : 35130920
        _STATISTICS_WRITING_APP: mkvpropedit v66.0.0 ('Josie') 64-bit
        _STATISTICS_WRITING_DATE_UTC: 2025-06-20 15:25:15
        encoder         : Lavc61.19.100 pcm_s16le
frame=  226 fps=0.0 q=-0.0 size=N/A time=00:00:07.54 bitrate=N/A speed=14.9x    frame=  503 fps=495 q=-0.0 size=N/A time=00:00:16.78 bitrate=N/A speed=16.5x    frame=  828 fps=538 q=-0.0 size=N/A time=00:00:27.62 bitrate=N/A speed=  18x    frame= 1074 fps=525 q=-0.0 size=N/A time=00:00:35.83 bitrate=N/A speed=17.5x    frame= 1317 fps=512 q=-0.0 size=N/A time=00:00:43.94 bitrate=N/A speed=17.1x    frame= 1556 fps=505 q=-0.0 size=N/A time=00:00:51.91 bitrate=N/A speed=16.8x    frame= 1913 fps=532 q=-0.0 size=N/A time=00:01:03.83 bitrate=N/A speed=17.8x    frame= 2184 fps=530 q=-0.0 size=N/A time=00:01:12.87 bitrate=N/A speed=17.7x    frame= 2470 fps=533 q=-0.0 size=N/A time=00:01:22.41 bitrate=N/A speed=17.8x    frame= 2702 fps=526 q=-0.0 size=N/A time=00:01:30.15 bitrate=N/A speed=17.5x    frame= 2959 fps=522 q=-0.0 size=N/A time=00:01:38.73 bitrate=N/A speed=17.4x    frame= 3207 fps=519 q=-0.0 size=N/A time=00:01:47.00 bitrate=N/A speed=17.3x    frame= 3458 fps=517 q=-0.0 size=N/A time=00:01:55.38 bitrate=N/A speed=17.3x    frame= 3666 fps=508 q=-0.0 size=N/A time=00:02:02.32 bitrate=N/A speed=  17x    frame= 3876 fps=502 q=-0.0 size=N/A time=00:02:09.32 bitrate=N/A speed=16.7x    frame= 4092 fps=497 q=-0.0 size=N/A time=00:02:16.53 bitrate=N/A speed=16.6x    frame= 4358 fps=497 q=-0.0 size=N/A time=00:02:25.41 bitrate=N/A speed=16.6x    frame= 4572 fps=493 q=-0.0 size=N/A time=00:02:32.55 bitrate=N/A speed=16.5x    frame= 5028 fps=514 q=-0.0 size=N/A time=00:02:47.76 bitrate=N/A speed=17.1x    frame= 5567 fps=540 q=-0.0 size=N/A time=00:03:05.75 bitrate=N/A speed=  18x    frame= 6063 fps=560 q=-0.0 size=N/A time=00:03:22.30 bitrate=N/A speed=18.7x    frame= 6547 fps=578 q=-0.0 size=N/A time=00:03:38.45 bitrate=N/A speed=19.3x    frame= 6928 fps=584 q=-0.0 size=N/A time=00:03:51.16 bitrate=N/A speed=19.5x    frame= 7363 fps=595 q=-0.0 size=N/A time=00:04:05.67 bitrate=N/A speed=19.9x    frame= 7900 fps=613 q=-0.0 size=N/A time=00:04:23.59 bitrate=N/A speed=20.4x    frame= 8433 fps=628 q=-0.0 size=N/A time=00:04:41.38 bitrate=N/A speed=  21x    frame= 8976 fps=644 q=-0.0 size=N/A time=00:04:59.49 bitrate=N/A speed=21.5x    frame= 9551 fps=661 q=-0.0 size=N/A time=00:05:18.68 bitrate=N/A speed=22.1x    frame=10144 fps=678 q=-0.0 size=N/A time=00:05:38.47 bitrate=N/A speed=22.6x    frame=10710 fps=692 q=-0.0 size=N/A time=00:05:57.35 bitrate=N/A speed=23.1x    frame=11187 fps=700 q=-0.0 size=N/A time=00:06:13.27 bitrate=N/A speed=23.4x    frame=11747 fps=712 q=-0.0 size=N/A time=00:06:31.95 bitrate=N/A speed=23.7x    frame=12285 fps=722 q=-0.0 size=N/A time=00:06:49.90 bitrate=N/A speed=24.1x    frame=12854 fps=733 q=-0.0 size=N/A time=00:07:08.89 bitrate=N/A speed=24.4x    frame=13435 fps=744 q=-0.0 size=N/A time=00:07:28.28 bitrate=N/A speed=24.8x    frame=14018 fps=755 q=-0.0 size=N/A time=00:07:47.73 bitrate=N/A speed=25.2x    frame=14594 fps=764 q=-0.0 size=N/A time=00:08:06.95 bitrate=N/A speed=25.5x    frame=15115 fps=771 q=-0.0 size=N/A time=00:08:24.33 bitrate=N/A speed=25.7x    frame=15725 fps=782 q=-0.0 size=N/A time=00:08:44.69 bitrate=N/A speed=26.1x    frame=16317 fps=791 q=-0.0 size=N/A time=00:09:04.44 bitrate=N/A speed=26.4x    frame=16873 fps=798 q=-0.0 size=N/A time=00:09:22.99 bitrate=N/A speed=26.6x    frame=17451 fps=805 q=-0.0 size=N/A time=00:09:42.28 bitrate=N/A speed=26.9x    frame=17963 fps=810 q=-0.0 size=N/A time=00:09:59.36 bitrate=N/A speed=  27x    frame=18484 fps=815 q=-0.0 size=N/A time=00:10:16.74 bitrate=N/A speed=27.2x    frame=18991 fps=818 q=-0.0 size=N/A time=00:10:33.66 bitrate=N/A speed=27.3x    frame=19535 fps=823 q=-0.0 size=N/A time=00:10:51.81 bitrate=N/A speed=27.5x    frame=20024 fps=826 q=-0.0 size=N/A time=00:11:08.13 bitrate=N/A speed=27.6x    frame=20554 fps=830 q=-0.0 size=N/A time=00:11:25.81 bitrate=N/A speed=27.7x    frame=21001 fps=831 q=-0.0 size=N/A time=00:11:40.73 bitrate=N/A speed=27.7x    frame=21455 fps=832 q=-0.0 size=N/A time=00:11:55.88 bitrate=N/A speed=27.8x    frame=21984 fps=836 q=-0.0 size=N/A time=00:12:13.53 bitrate=N/A speed=27.9x    frame=22493 fps=839 q=-0.0 size=N/A time=00:12:30.51 bitrate=N/A speed=  28x    frame=23083 fps=845 q=-0.0 size=N/A time=00:12:50.20 bitrate=N/A speed=28.2x    frame=23579 fps=846 q=-0.0 size=N/A time=00:13:06.75 bitrate=N/A speed=28.2x    frame=24109 fps=850 q=-0.0 size=N/A time=00:13:24.43 bitrate=N/A speed=28.4x    frame=24650 fps=853 q=-0.0 size=N/A time=00:13:42.48 bitrate=N/A speed=28.5x    frame=25156 fps=855 q=-0.0 size=N/A time=00:13:59.37 bitrate=N/A speed=28.5x    frame=25664 fps=857 q=-0.0 size=N/A time=00:14:16.32 bitrate=N/A speed=28.6x    frame=26241 fps=862 q=-0.0 size=N/A time=00:14:35.57 bitrate=N/A speed=28.8x    frame=26813 fps=866 q=-0.0 size=N/A time=00:14:54.66 bitrate=N/A speed=28.9x    frame=27289 fps=867 q=-0.0 size=N/A time=00:15:10.54 bitrate=N/A speed=28.9x    frame=27816 fps=869 q=-0.0 size=N/A time=00:15:28.12 bitrate=N/A speed=  29x    frame=28335 fps=872 q=-0.0 size=N/A time=00:15:45.44 bitrate=N/A speed=29.1x    frame=28890 fps=875 q=-0.0 size=N/A time=00:16:03.96 bitrate=N/A speed=29.2x    frame=29447 fps=878 q=-0.0 size=N/A time=00:16:22.54 bitrate=N/A speed=29.3x    frame=30011 fps=881 q=-0.0 size=N/A time=00:16:41.36 bitrate=N/A speed=29.4x    frame=30499 fps=882 q=-0.0 size=N/A time=00:16:57.64 bitrate=N/A speed=29.4x    frame=30996 fps=883 q=-0.0 size=N/A time=00:17:14.23 bitrate=N/A speed=29.5x    frame=31480 fps=884 q=-0.0 size=N/A time=00:17:30.38 bitrate=N/A speed=29.5x    frame=32041 fps=887 q=-0.0 size=N/A time=00:17:49.10 bitrate=N/A speed=29.6x    frame=32549 fps=888 q=-0.0 size=N/A time=00:18:06.05 bitrate=N/A speed=29.6x    frame=33091 fps=890 q=-0.0 size=N/A time=00:18:24.13 bitrate=N/A speed=29.7x    frame=33547 fps=890 q=-0.0 size=N/A time=00:18:39.35 bitrate=N/A speed=29.7x    frame=34144 fps=894 q=-0.0 size=N/A time=00:18:59.27 bitrate=N/A speed=29.8x    frame=34565 fps=893 q=-0.0 size=N/A time=00:19:13.31 bitrate=N/A speed=29.8x    frame=35058 fps=894 q=-0.0 size=N/A time=00:19:29.76 bitrate=N/A speed=29.8x    frame=35613 fps=896 q=-0.0 size=N/A time=00:19:48.28 bitrate=N/A speed=29.9x    frame=36125 fps=898 q=-0.0 size=N/A time=00:20:05.37 bitrate=N/A speed=29.9x    frame=36678 fps=899 q=-0.0 size=N/A time=00:20:23.82 bitrate=N/A speed=  30x    frame=37259 fps=902 q=-0.0 size=N/A time=00:20:43.20 bitrate=N/A speed=30.1x    frame=37742 fps=903 q=-0.0 size=N/A time=00:20:59.32 bitrate=N/A speed=30.1x    frame=38180 fps=902 q=-0.0 size=N/A time=00:21:13.93 bitrate=N/A speed=30.1x    frame=38736 fps=904 q=-0.0 size=N/A time=00:21:32.49 bitrate=N/A speed=30.2x    frame=39198 fps=904 q=-0.0 size=N/A time=00:21:47.90 bitrate=N/A speed=30.2x    frame=39600 fps=903 q=-0.0 size=N/A time=00:22:01.32 bitrate=N/A speed=30.1x    frame=39998 fps=901 q=-0.0 size=N/A time=00:22:14.59 bitrate=N/A speed=30.1x    frame=40240 fps=896 q=-0.0 size=N/A time=00:22:22.67 bitrate=N/A speed=29.9x    frame=40493 fps=892 q=-0.0 size=N/A time=00:22:31.11 bitrate=N/A speed=29.8x    frame=40820 fps=889 q=-0.0 size=N/A time=00:22:42.02 bitrate=N/A speed=29.7x    frame=41208 fps=887 q=-0.0 size=N/A time=00:22:54.97 bitrate=N/A speed=29.6x    frame=41592 fps=886 q=-0.0 size=N/A time=00:23:07.78 bitrate=N/A speed=29.6x    frame=42080 fps=886 q=-0.0 size=N/A time=00:23:24.06 bitrate=N/A speed=29.6x    frame=42525 fps=886 q=-0.0 size=N/A time=00:23:38.91 bitrate=N/A speed=29.6x    frame=42856 fps=884 q=-0.0 size=N/A time=00:23:49.96 bitrate=N/A speed=29.5x    [Parsed_psnr_10 @ 0000026a4a3e3d00] PSNR y:44.385247 u:46.501537 v:47.334584 average:45.072911 min:35.412375 max:64.350828
[out#0/null @ 0000026a3f6f71c0] video:18541KiB audio:269988KiB subtitle:0KiB other streams:0KiB global headers:0KiB muxing overhead: unknown
frame=43151 fps=886 q=-0.0 Lsize=N/A time=00:23:59.80 bitrate=N/A speed=29.5x    
